<svg xmlns="http://www.w3.org/2000/svg" viewBox="0 0 260 150" role="img" aria-labelledby="title desc">
  <title id="title">Cartoon alligator</title>
  <desc id="desc">A cartoon alligator with a long snout, bumpy armored back, short legs, and a toothy grin.</desc>
  <path d="M22 88c-15-9-19-21-10-30 11-11 34-4 62 20" fill="#2d8f54" stroke="#171611" stroke-width="7" stroke-linecap="round" stroke-linejoin="round"/>
  <path d="M47 82c24-28 72-43 135-39 37 2 58 13 62 31 4 17-10 31-38 39-35 10-91 11-143 3-22-4-30-16-16-34Z" fill="#2f9b5b" stroke="#171611" stroke-width="8" stroke-linejoin="round"/>
  <path d="M143 51c25-15 62-22 91-10 15 6 23 18 21 31-3 15-18 22-42 20-29-2-55-11-83-25" fill="#3eaa65" stroke="#171611" stroke-width="8" stroke-linejoin="round"/>
  <path d="M159 72c27 10 58 14 88 11" fill="none" stroke="#b7f526" stroke-width="6" stroke-linecap="round"/>
  <path d="M142 84c26 8 60 11 95 7" fill="none" stroke="#171611" stroke-width="5" stroke-linecap="round"/>
  <path d="M160 91l7 13 8-12 9 13 8-12 11 11 5-12" fill="#f8fff6" stroke="#171611" stroke-width="4" stroke-linejoin="round"/>
  <path d="M181 39c3-14 16-21 27-16 8 4 10 13 4 23" fill="#3eaa65" stroke="#171611" stroke-width="7" stroke-linecap="round" stroke-linejoin="round"/>
  <path d="M219 41c4-12 17-16 26-8 7 6 6 17-3 25" fill="#3eaa65" stroke="#171611" stroke-width="7" stroke-linecap="round" stroke-linejoin="round"/>
  <circle cx="199" cy="37" r="5.5" fill="#171611"/>
  <circle cx="235" cy="45" r="5.5" fill="#171611"/>
  <path d="M65 60l11-19 10 18 14-20 8 21 16-17 6 20 18-14 4 22" fill="#1f6f43" stroke="#171611" stroke-width="6" stroke-linejoin="round"/>
  <path d="M57 113l-20 22M88 118l-8 23M155 119l10 22M197 112l22 17" stroke="#171611" stroke-width="9" stroke-linecap="round"/>
  <path d="M31 134h28M69 140h28M156 139h28M211 127h29" stroke="#2f9b5b" stroke-width="11" stroke-linecap="round"/>
  <path d="M72 82c25-7 57-9 91-5" fill="none" stroke="#b7f526" stroke-width="6" stroke-linecap="round"/>
  <path d="M76 102c28 7 61 9 97 5" fill="none" stroke="#0f613a" stroke-width="5" stroke-linecap="round"/>
</svg>
