<svg xmlns="http://www.w3.org/2000/svg" viewBox="0 0 230 170" role="img" aria-labelledby="title desc">
  <title id="title">Cartoon turtle</title>
  <desc id="desc">A cartoon turtle with a domed patterned shell, one smiling head, four flippers, and a short tail.</desc>
  <path d="M24 103c-15 3-24 13-21 26 4 15 22 21 38 10 10-7 12-21 5-30-5-5-12-8-22-6Z" fill="#55b963" stroke="#171611" stroke-width="7" stroke-linejoin="round"/>
  <path d="M71 136c-12 8-16 21-8 30 10 10 28 4 35-12 4-10-1-21-11-24-6-2-11 0-16 6Z" fill="#55b963" stroke="#171611" stroke-width="7" stroke-linejoin="round"/>
  <path d="M158 136c12 8 16 21 8 30-10 10-28 4-35-12-4-10 1-21 11-24 6-2 11 0 16 6Z" fill="#55b963" stroke="#171611" stroke-width="7" stroke-linejoin="round"/>
  <path d="M204 112c12 8 24 9 28 0 4-10-6-21-21-24-12-2-22 3-24 12-2 6 4 9 17 12Z" fill="#55b963" stroke="#171611" stroke-width="7" stroke-linejoin="round"/>
  <path d="M23 105c-13-4-19-13-15-21 5-10 21-9 37 2" fill="#55b963" stroke="#171611" stroke-width="7" stroke-linecap="round" stroke-linejoin="round"/>
  <path d="M115 22c-49 0-88 32-88 73 0 43 35 68 88 68s88-25 88-68c0-41-39-73-88-73Z" fill="#d6a62b" stroke="#171611" stroke-width="8"/>
  <path d="M54 93c15-31 36-48 61-48s46 17 61 48c-13 28-34 42-61 42s-48-14-61-42Z" fill="#2f8d51" stroke="#171611" stroke-width="7" stroke-linejoin="round"/>
  <path d="M86 56h58l23 37-23 36H86L63 93Z" fill="#3da760" stroke="#171611" stroke-width="5" stroke-linejoin="round"/>
  <path d="M86 56l29 37-29 36M144 56l-29 37 29 36M63 93h104M115 45v90" fill="none" stroke="#b7f526" stroke-width="5" stroke-linecap="round" stroke-linejoin="round"/>
  <path d="M178 70c8-24 27-39 47-31 14 6 17 23 5 38-12 14-34 16-52-7Z" fill="#55b963" stroke="#171611" stroke-width="8" stroke-linejoin="round"/>
  <circle cx="211" cy="52" r="5.5" fill="#171611"/>
  <path d="M201 67c8 6 17 6 25-1" fill="none" stroke="#171611" stroke-width="5" stroke-linecap="round"/>
  <path d="M194 40c6-6 14-9 25-7" fill="none" stroke="#b7f526" stroke-width="4" stroke-linecap="round"/>
  <path d="M178 151c11 1 20 5 27 13" fill="none" stroke="#171611" stroke-width="7" stroke-linecap="round"/>
</svg>
